<?xml version="1.0" standalone="no"?>
<!DOCTYPE svg PUBLIC "-//W3C//DTD SVG 20010904//EN"
 "http://www.w3.org/TR/2001/REC-SVG-20010904/DTD/svg10.dtd">
<svg version="1.0" xmlns="http://www.w3.org/2000/svg"
 width="512.000000pt" height="512.000000pt" viewBox="0 0 512.000000 512.000000"
 preserveAspectRatio="xMidYMid meet">

<g transform="translate(0.000000,512.000000) scale(0.100000,-0.100000)"
fill="#000000" stroke="none">
<path d="M2661 4866 c-48 -17 -108 -71 -133 -119 -19 -35 -23 -62 -26 -169
l-4 -128 -642 0 c-488 -1 -645 -4 -657 -13 -37 -28 -39 -48 -39 -420 0 -418
-5 -398 94 -431 l56 -19 0 -276 0 -276 -118 -17 c-287 -40 -543 -164 -755
-368 -215 -205 -345 -438 -409 -728 -30 -133 -31 -405 -4 -537 56 -268 176
-500 360 -693 122 -127 236 -211 391 -287 226 -112 410 -151 665 -142 161 6
253 21 380 63 474 158 827 555 927 1040 l18 84 1018 0 c897 0 1022 2 1055 16
39 16 86 56 105 89 9 15 13 286 17 1024 l5 1003 59 22 c102 38 96 12 96 443
l0 374 -25 24 -24 25 -651 0 -650 0 0 123 c0 138 -12 178 -71 236 -71 72 -63
71 -559 70 -323 0 -454 -4 -479 -13z m924 -171 c24 -23 25 -31 25 -135 l0
-110 -475 0 -475 0 0 101 c0 100 8 132 39 156 12 9 122 12 439 13 l423 0 24
-25z m1375 -684 c0 -256 -1 -279 -17 -286 -35 -13 -1299 -468 -1363 -490 -65
-22 -66 -22 -89 -4 -22 18 -46 19 -351 19 -305 0 -329 -1 -351 -19 l-24 -19
-455 164 c-250 90 -575 207 -722 260 l-268 96 0 279 0 279 1820 0 1820 0 0
-279z m-2768 -763 l568 -203 0 -131 c0 -115 2 -135 19 -155 l19 -24 335 -3
c417 -3 380 -20 387 175 l5 138 630 227 c347 125 633 227 638 227 4 1 6 -428
5 -951 l-3 -953 -1006 -3 -1006 -2 -7 102 c-4 57 -15 146 -26 198 -113 586
-595 1037 -1187 1112 l-93 12 0 247 0 248 78 -29 c42 -15 332 -120 644 -232z
m1168 -258 l0 -100 -220 0 -220 0 0 100 0 100 220 0 220 0 0 -100z m-1668
-174 c466 -125 813 -494 904 -963 21 -105 23 -337 5 -432 -36 -185 -95 -330
-195 -480 -114 -172 -269 -309 -456 -405 -184 -94 -356 -136 -560 -136 -467 0
-886 257 -1096 672 -97 192 -127 325 -127 553 0 181 9 246 59 393 104 311 349
584 646 721 189 87 313 112 548 107 150 -3 189 -7 272 -30z"/>
<path d="M3611 2014 c-29 -36 -27 -75 5 -105 l26 -24 408 0 408 0 26 24 c32
30 34 69 5 105 l-20 26 -419 0 -419 0 -20 -26z"/>
<path d="M1808 2253 c-18 -15 -90 -80 -160 -145 -113 -104 -130 -117 -150
-109 -13 5 -79 32 -147 60 -69 28 -135 51 -148 51 -24 0 -33 -8 -223 -179
-161 -144 -180 -166 -180 -199 0 -54 65 -96 112 -71 12 7 88 71 167 143 79 72
149 130 155 129 7 -2 72 -28 145 -58 73 -30 146 -55 162 -55 24 0 63 30 210
166 99 92 184 177 189 190 12 30 -1 67 -32 88 -33 23 -62 20 -100 -11z"/>
<path d="M1810 2000 c-19 -19 -20 -33 -20 -445 l0 -425 -85 0 -85 0 0 260 c0
210 -3 267 -15 289 -24 46 -74 55 -119 20 l-26 -20 0 -275 0 -274 -85 0 -85 0
0 334 c0 322 -1 334 -21 360 -27 35 -86 36 -117 3 -22 -23 -22 -28 -22 -360
l0 -337 -85 0 -85 0 0 184 c0 179 -1 186 -23 212 -33 37 -81 37 -114 0 -22
-26 -23 -33 -23 -212 l0 -184 -130 0 c-126 0 -132 -1 -155 -25 -39 -38 -27
-102 22 -124 17 -8 268 -11 857 -11 816 0 834 0 859 20 44 35 43 93 -2 127
-11 8 -62 12 -158 13 l-143 0 0 404 c0 415 -3 456 -40 476 -31 16 -79 11 -100
-10z"/>
</g>
</svg>
