<?xml version="1.0" standalone="no"?>
<!DOCTYPE svg PUBLIC "-//W3C//DTD SVG 20010904//EN"
 "http://www.w3.org/TR/2001/REC-SVG-20010904/DTD/svg10.dtd">
<svg version="1.0" xmlns="http://www.w3.org/2000/svg"
 width="512.000000pt" height="512.000000pt" viewBox="0 0 512.000000 512.000000"
 preserveAspectRatio="xMidYMid meet">

<g transform="translate(0.000000,512.000000) scale(0.100000,-0.100000)"
fill="#000000" stroke="none">
<path d="M583 5106 c-104 -34 -192 -122 -223 -223 -25 -83 -25 -124 1 -209 18
-57 31 -77 82 -129 40 -39 79 -68 110 -80 l47 -18 0 -116 c1 -167 30 -230 132
-287 51 -28 59 -29 201 -32 81 -2 147 -8 147 -12 0 -5 -9 -46 -20 -92 -11 -46
-23 -118 -26 -160 l-7 -78 -177 0 -177 0 -21 49 c-42 101 -145 182 -255 199
-152 24 -298 -51 -364 -187 -24 -48 -28 -68 -28 -146 0 -108 20 -159 89 -233
136 -145 361 -143 496 4 26 30 56 74 65 99 l18 45 178 0 179 0 0 -34 c0 -33
33 -238 46 -282 6 -21 3 -22 -143 -26 -169 -4 -201 -15 -267 -88 -53 -59 -59
-80 -65 -224 l-6 -129 -45 -15 c-30 -10 -65 -35 -107 -77 -53 -53 -64 -71 -83
-134 -51 -166 18 -329 172 -407 76 -39 190 -45 273 -13 82 31 163 112 194 194
31 81 27 197 -9 270 -32 66 -99 131 -166 162 l-54 24 0 104 c0 95 2 106 24
132 l24 28 161 3 160 3 42 -82 c59 -118 112 -199 208 -319 240 -300 357 -574
396 -932 6 -52 4 -57 -15 -63 -34 -11 -99 -74 -121 -117 -29 -56 -34 -116 -15
-180 9 -31 24 -66 34 -79 19 -22 19 -23 -4 -57 -57 -84 -57 -190 0 -274 l23
-34 -23 -34 c-104 -152 -2 -369 184 -389 l56 -6 36 -64 c148 -262 456 -404
754 -347 203 39 386 170 486 347 l36 64 56 6 c186 20 288 237 184 389 l-23 34
23 34 c57 84 57 190 0 274 -23 34 -23 35 -4 57 49 62 58 183 18 261 -21 41
-87 105 -119 115 -25 8 -24 1 -6 138 41 311 165 587 385 857 92 112 152 204
209 318 l42 83 160 -3 161 -3 24 -28 c22 -26 24 -37 24 -131 l0 -103 -65 -32
c-115 -57 -178 -154 -183 -286 -5 -111 21 -180 97 -256 77 -76 146 -103 256
-97 62 4 92 11 133 32 181 92 244 316 137 486 -33 52 -109 116 -158 133 l-42
14 -6 129 c-6 144 -12 165 -65 224 -66 73 -98 84 -267 88 -146 4 -149 5 -143
26 13 44 46 249 46 282 l0 34 179 0 178 0 17 -45 c54 -139 227 -235 374 -204
269 55 371 364 187 567 -96 107 -277 136 -408 64 -61 -33 -130 -109 -153 -167
l-17 -45 -177 0 -177 0 -7 78 c-3 42 -15 114 -26 160 -11 46 -20 87 -20 92 0
4 66 10 148 12 141 3 149 4 200 32 102 57 131 120 132 287 l0 116 48 18 c30
12 69 41 109 80 51 52 64 72 82 129 26 85 26 126 1 209 -26 84 -96 164 -178
204 -50 24 -68 28 -147 28 -109 0 -163 -23 -241 -100 -92 -91 -120 -234 -72
-362 26 -71 101 -149 176 -183 l52 -24 0 -105 c-1 -157 -6 -161 -222 -161
l-154 0 -35 72 c-99 210 -323 467 -519 597 -271 180 -548 266 -860 266 -182 0
-297 -18 -470 -75 -391 -128 -727 -417 -906 -782 l-38 -78 -154 0 c-216 0
-221 4 -222 161 l0 105 53 24 c212 96 266 383 103 545 -70 69 -132 97 -226
101 -45 3 -91 -2 -117 -10z m196 -189 c128 -85 75 -290 -79 -305 -62 -6 -100
10 -144 58 -46 51 -56 110 -28 172 19 45 69 91 107 101 40 11 106 -1 144 -26z
m2039 8 c45 -9 128 -32 184 -51 840 -293 1183 -1277 706 -2029 -14 -22 -70
-96 -124 -165 -55 -69 -121 -160 -147 -202 -65 -104 -149 -283 -187 -397 -31
-95 -74 -297 -85 -403 l-6 -58 -255 0 -254 0 0 385 0 384 38 10 c54 15 86 54
122 147 30 75 35 82 69 93 20 6 63 24 96 39 l60 29 78 -34 c110 -46 159 -45
224 5 64 51 143 139 159 179 20 47 18 66 -21 162 l-35 86 39 95 c37 92 40 96
87 118 177 81 178 83 182 245 6 190 -8 214 -148 271 l-83 33 -22 59 c-11 33
-29 76 -39 96 l-18 38 36 89 c40 98 42 117 22 164 -19 44 -116 148 -173 186
-62 41 -103 40 -204 -3 l-79 -35 -63 28 c-34 16 -78 34 -98 40 -32 10 -39 19
-64 84 -57 147 -80 162 -255 162 -175 0 -198 -15 -255 -162 -25 -65 -32 -74
-64 -84 -20 -6 -64 -24 -98 -40 l-63 -28 -79 35 c-101 43 -142 44 -204 3 -57
-38 -154 -142 -173 -186 -20 -47 -18 -66 21 -162 l35 -87 -21 -50 c-12 -27
-30 -71 -39 -98 -17 -48 -19 -50 -100 -82 -138 -56 -151 -78 -151 -254 0 -166
13 -187 147 -244 43 -18 81 -39 85 -47 5 -8 24 -52 43 -99 l36 -86 -35 -84
c-19 -47 -35 -95 -35 -108 0 -58 67 -149 173 -234 64 -50 113 -52 224 -5 l78
34 60 -29 c33 -15 76 -33 96 -39 34 -11 39 -18 69 -93 36 -93 68 -132 122
-147 l38 -10 0 -384 0 -385 -254 0 -253 0 -7 31 c-3 17 -6 45 -6 61 0 51 -48
269 -80 369 -66 198 -196 431 -334 599 -304 367 -407 785 -301 1226 96 401
371 739 745 913 131 60 270 102 405 120 96 13 333 6 433 -14z m1687 6 c108
-49 136 -176 59 -261 -62 -68 -159 -79 -230 -25 -47 36 -67 85 -62 151 5 63
34 105 90 133 52 26 91 26 143 2z m-1847 -386 c56 -143 53 -139 155 -175 51
-17 115 -45 143 -61 28 -16 61 -29 72 -29 12 0 61 18 111 39 l90 39 41 -35
c66 -56 67 -63 26 -158 -20 -46 -36 -95 -36 -109 0 -15 15 -57 34 -95 19 -37
45 -98 56 -135 12 -37 30 -75 41 -84 10 -9 57 -32 104 -51 l86 -33 -3 -75 -3
-75 -84 -34 c-46 -18 -92 -41 -102 -50 -10 -9 -28 -46 -39 -83 -12 -36 -37
-97 -56 -134 -19 -37 -34 -80 -34 -94 0 -14 16 -61 35 -106 19 -44 35 -86 35
-92 0 -6 -22 -32 -49 -59 l-48 -48 -96 41 c-53 23 -100 41 -105 41 -5 0 -52
-20 -103 -44 -52 -25 -115 -50 -141 -56 -60 -15 -79 -37 -120 -140 l-34 -85
-74 0 -74 0 -34 85 c-41 103 -60 125 -120 140 -26 6 -89 31 -141 56 -51 24
-98 44 -103 44 -5 0 -52 -18 -105 -41 l-96 -41 -48 48 c-27 27 -49 53 -49 59
0 6 16 48 35 92 19 45 35 92 35 106 0 14 -15 57 -34 94 -19 37 -44 98 -56 134
-11 37 -29 74 -39 83 -10 9 -56 32 -102 50 l-84 34 -3 75 -3 75 86 33 c47 19
94 42 104 51 11 9 29 47 41 84 11 37 37 98 56 135 19 38 34 80 34 95 0 14 -16
63 -36 109 l-36 84 21 30 c12 17 36 41 53 54 l30 24 90 -38 c49 -22 98 -39
110 -39 11 0 44 13 72 29 28 16 87 41 131 57 95 32 117 50 141 112 9 26 25 66
35 90 l19 43 72 -3 72 -3 24 -60z m-2228 -817 c48 -33 72 -70 77 -121 10 -88
-41 -164 -127 -187 -146 -39 -264 134 -177 260 47 70 160 93 227 48z m4430 3
c99 -52 117 -186 36 -267 -64 -64 -160 -65 -231 -3 -113 99 -41 289 109 289
31 0 65 -7 86 -19z m-4104 -1190 c63 -29 89 -72 89 -151 0 -77 -24 -119 -85
-150 -136 -69 -293 68 -235 206 42 101 134 139 231 95z m3747 5 c42 -17 83
-66 98 -116 23 -75 -27 -170 -104 -199 -69 -26 -155 1 -199 61 -33 48 -33 149
1 197 44 61 135 86 204 57z m-1202 -1125 c17 -18 29 -40 29 -56 0 -16 -12 -38
-29 -56 l-29 -29 -712 0 -712 0 -29 29 c-17 18 -29 40 -29 56 0 16 12 38 29
56 l29 29 712 0 712 0 29 -29z m0 -340 c17 -18 29 -40 29 -56 0 -16 -12 -38
-29 -56 l-29 -29 -712 0 -712 0 -29 29 c-17 18 -29 40 -29 56 0 16 12 38 29
56 l29 29 712 0 712 0 29 -29z m-21 -324 c53 -27 62 -96 18 -137 -21 -20 -32
-20 -738 -20 -706 0 -717 0 -738 20 -44 41 -35 110 18 137 36 18 1404 18 1440
0z m-260 -337 c0 -20 -146 -156 -197 -183 -66 -35 -191 -67 -263 -67 -77 0
-200 33 -269 72 -55 31 -191 158 -191 178 0 7 158 10 460 10 306 0 460 -3 460
-10z"/>
<path d="M2465 4259 c-154 -23 -271 -84 -386 -199 -70 -70 -95 -103 -128 -172
-191 -393 17 -850 439 -965 46 -12 99 -17 180 -17 98 1 127 5 195 28 291 99
475 351 475 650 0 115 -20 198 -71 305 -59 120 -179 241 -299 299 -47 23 -110
48 -141 56 -77 19 -193 26 -264 15z m225 -181 c81 -19 176 -76 239 -143 154
-166 185 -398 79 -597 -39 -74 -147 -177 -223 -212 -61 -29 -168 -56 -225 -56
-57 0 -164 27 -225 55 -71 34 -170 126 -214 199 -170 284 -20 660 299 750 98
27 167 28 270 4z"/>
</g>
</svg>
