<svg version="1.2" xmlns="http://www.w3.org/2000/svg" viewBox="0 0 647 152" width="200" height="47">
	<title>Logo Hassir Lastre </title>
	<style>
		.s0 { fill: #F2EEEB} 
	</style>
	<g id="Capa 1">
		<path id="&lt;Path&gt;" class="s0" d="m120.8 47l22.2-22.2 55.6 55.5-55.6 55.5-14.2-14.2h0.1l-21.7-21.7 21.4-21.4 21.7 21.7 11.8-11.9z"/>
		<path id="&lt;Path&gt;" class="s0" d="m17.6 78.5l55.5-55.5 23.4 23.4 21.5 21.6-21.4 21.4-21.5-21.6-11.9 11.9 32.2 32.1-22.3 22.3z"/>
		<path id="&lt;Path&gt;" fill-rule="evenodd" class="s0" d="m219.1 57.1h10v18.2h18v-18.2h10.1v45.4h-10.1v-18.3h-18v18.3h-10zm60.2 11q6.7 0 10.9 2.8 4.1 2.9 4.1 8.6v23h-8.5v-3.8q-2.2 2.2-5.2 3.4-3 1.1-5.7 1.1-5 0-7.9-2.5-3-2.5-3-6.9 0-6.1 6.3-9.2 2.3-1.1 4.9-1.9 2.6-0.8 8.4-2.3 0.8-0.1 2.2-0.5 0-2.5-1.6-3.6-1.5-1.1-4.8-1.1-3 0-5 1-2 1-3.8 3.2l-5.9-4.5q2.4-3.3 5.9-5.1 3.6-1.7 8.7-1.7zm-1.7 27.9q2.3 0 4.4-1 2.2-1 3.8-2.9v-5.9q-2.5 0.7-5 1.5-2.4 0.7-3.7 1.4-3 1.4-3 3.8 0 1.5 1 2.3 1 0.8 2.5 0.8zm37 7.2q-4.1 0-8.3-1.5-4.1-1.5-7.1-4.2l4.3-6q2.1 2 4.8 3.3 2.6 1.2 5.8 1.2 2.4 0 3.8-0.8 1.5-0.8 1.5-2.5 0-1.6-1.6-2.2-1.5-0.7-5.5-1.7-3.6-0.9-6-1.9-2.3-1-3.9-3-1.6-2-1.6-5.3 0-5.3 3.7-7.9 3.8-2.6 9.9-2.6 7.9 0 13.3 4.9l-3.9 5.8q-1.7-1.5-3.5-2.4-1.9-0.9-4.7-1.3-1.2-0.2-1.6-0.2-2.1 0-3.3 0.8-1.2 0.7-1.2 1.9 0 1.3 1.7 2 1.7 0.7 5.2 1.6l1.7 0.5q5 1.3 7.7 3.5 2.8 2.3 2.8 6.9 0 5.2-3.7 8.1-3.6 3-10.3 3zm32.8 0q-4.1 0-8.2-1.5-4.1-1.5-7.1-4.2l4.3-6q2.1 2 4.7 3.3 2.7 1.2 5.9 1.2 2.3 0 3.8-0.8 1.4-0.8 1.4-2.5 0-1.6-1.5-2.2-1.6-0.7-5.5-1.7-3.6-0.9-6-1.9-2.3-1-3.9-3-1.6-2-1.6-5.3 0-5.3 3.7-7.9 3.8-2.6 9.9-2.6 7.9 0 13.3 4.9l-3.9 5.8q-1.7-1.5-3.6-2.4-1.8-0.9-4.6-1.3-1.2-0.2-1.7-0.2-2 0-3.2 0.8-1.2 0.7-1.2 1.9 0 1.3 1.7 2 1.7 0.7 5.2 1.6l1.7 0.5q4.9 1.3 7.7 3.5 2.8 2.3 2.8 6.9 0 5.2-3.7 8.1-3.6 3-10.4 3zm19.9-34.5h9.7v33.8h-9.7zm0-11.7h9.8v7.4h-9.8zm18.2 11.7h9.4v5.2h0.2q1.2-2.7 3.2-4.2 2-1.5 4.4-1.5 2.6 0 3.8 0.5v8q-0.6-0.1-1.7-0.1-1.2 0-1.8 0.2-3.6 0.5-5.7 3.3-2.1 2.7-2.1 7.6v14.8h-9.7zm41.6-11.7h10v37h19.5v8.5h-29.5zm47.8 11.1q6.8 0 10.9 2.8 4.2 2.9 4.2 8.6v23h-8.5v-3.8q-2.3 2.2-5.2 3.4-3 1.1-5.7 1.1-5 0-8-2.5-2.9-2.5-2.9-6.9 0-6.1 6.3-9.2 2.2-1.1 4.9-1.9 2.6-0.8 8.4-2.3 0.7-0.1 2.2-0.5-0.1-2.5-1.6-3.6-1.5-1.1-4.9-1.1-3 0-5 1-2 1-3.8 3.2l-5.9-4.5q2.5-3.3 6-5.1 3.5-1.7 8.6-1.7zm-1.7 27.9q2.3 0 4.5-1 2.1-1 3.8-2.9v-5.9q-2.5 0.7-5 1.5-2.5 0.7-3.8 1.4-3 1.4-3 3.8 0 1.5 1 2.3 1 0.8 2.5 0.8zm37 7.2q-4.1 0-8.2-1.5-4.1-1.5-7.2-4.2l4.4-6q2 2 4.7 3.3 2.7 1.2 5.8 1.2 2.4 0 3.9-0.8 1.4-0.8 1.4-2.5 0-1.6-1.5-2.2-1.6-0.7-5.5-1.7-3.7-0.9-6-1.9-2.3-1-4-3-1.6-2-1.6-5.3 0-5.3 3.8-7.9 3.7-2.6 9.9-2.6 7.9 0 13.3 4.9l-3.9 5.8q-1.7-1.5-3.6-2.4-1.9-0.9-4.6-1.3-1.2-0.2-1.7-0.2-2 0-3.2 0.8-1.2 0.7-1.2 1.9 0 1.3 1.7 2 1.6 0.7 5.1 1.6l1.8 0.5q4.9 1.3 7.7 3.5 2.7 2.3 2.7 6.9 0 5.2-3.6 8.1-3.7 3-10.4 3zm29.3-0.7q-3.9 0-5.9-2.3-2.1-2.2-2.1-6.3v-18.9h-4.7v-6.3h4.7v-11.7h9.6v11.7h7v6.3h-7v16.5q0 1.9 0.7 2.7 0.7 0.8 2.3 0.8h4v7.5zm14.5-33.8h9.3v5.2h0.2q1.2-2.7 3.2-4.2 2.1-1.5 4.4-1.5 2.6 0 3.9 0.5v8q-0.6-0.1-1.7-0.1-1.3 0-1.8 0.2-3.6 0.5-5.8 3.3-2.1 2.7-2.1 7.6v14.8h-9.6zm55.1 15.3q0 2.5-0.3 3.9h-21.9q0.3 3.7 2.2 5.6 1.9 1.9 5.4 1.9 2.7 0 4.6-0.7 1.8-0.8 3.5-3l6.2 4.5q-3.2 3.7-6.6 5.3-3.4 1.6-7.8 1.6-4.9 0-8.9-2-3.9-2-6.1-5.9-2.3-3.9-2.3-9.3 0-5.3 2.1-9.3 2-4.1 5.8-6.3 3.7-2.2 8.5-2.2 4.5 0 8.1 2 3.5 1.9 5.5 5.6 2 3.6 2 8.3zm-15.7-8.6q-2.9 0-4.6 1.6-1.6 1.7-1.9 4.7h12.7q-0.1-2.8-1.7-4.6-1.5-1.7-4.5-1.7z"/>
	</g>
</svg>