<?xml version="1.0" standalone="no"?>
<!DOCTYPE svg PUBLIC "-//W3C//DTD SVG 20010904//EN"
 "http://www.w3.org/TR/2001/REC-SVG-20010904/DTD/svg10.dtd">
<svg version="1.0" xmlns="http://www.w3.org/2000/svg"
 width="512.000000pt" height="512.000000pt" viewBox="0 0 512.000000 512.000000"
 preserveAspectRatio="xMidYMid meet">

<g transform="translate(0.000000,512.000000) scale(0.100000,-0.100000)"
fill="#000000" stroke="none">
<path d="M90 5098 c-33 -17 -51 -35 -68 -68 -21 -41 -23 -56 -20 -172 3 -109
6 -130 24 -154 29 -39 66 -65 105 -73 l34 -7 3 -1157 2 -1157 1565 0 1565 0 0
-247 c0 -137 3 -265 6 -286 10 -60 63 -138 117 -171 40 -24 61 -30 127 -34
l80 -5 0 -783 0 -784 580 0 580 0 0 785 0 785 68 0 c55 0 79 5 123 27 61 32
113 93 129 153 7 27 10 262 8 717 l-3 678 -32 67 c-42 88 -110 160 -187 198
-34 16 -135 48 -226 70 -91 22 -171 43 -179 46 -9 3 4 16 35 37 106 69 187
175 231 298 23 65 27 93 31 234 3 119 0 179 -12 233 -18 89 -66 188 -118 247
-41 46 -41 47 14 59 37 8 88 54 104 93 9 21 14 73 14 146 0 141 -19 189 -90
225 l-44 22 -2261 0 -2261 0 -44 -22z m4530 -228 l0 -80 -2225 0 -2225 0 0 80
0 80 2225 0 2225 0 0 -80z m-861 -302 c-100 -127 -124 -211 -124 -438 0 -153
3 -184 22 -245 41 -129 141 -263 241 -322 24 -14 40 -29 35 -33 -4 -4 -84 -26
-178 -49 -93 -23 -195 -54 -225 -68 -69 -33 -150 -116 -183 -185 -40 -85 -47
-151 -47 -460 l0 -288 -1485 0 -1485 0 0 1070 0 1070 1735 0 1735 0 -41 -52z
m626 17 c77 -37 163 -123 201 -200 l29 -60 0 -195 c0 -191 -1 -196 -27 -252
-48 -102 -143 -187 -252 -224 l-47 -16 3 -117 3 -116 257 -65 c294 -75 323
-89 370 -179 l28 -53 0 -660 c0 -411 -4 -666 -10 -678 -12 -22 -61 -40 -111
-40 l-39 0 0 540 0 541 -82 -3 -83 -3 -3 -373 -2 -372 -410 0 -410 0 0 375 0
375 -85 0 -85 0 0 -541 0 -541 -57 4 c-46 4 -61 10 -80 32 l-23 27 0 646 c0
470 3 656 12 685 15 52 87 132 135 151 21 8 145 41 276 73 l237 58 0 117 0
116 -55 21 c-113 43 -190 116 -242 228 -27 58 -28 63 -28 244 0 181 1 186 28
244 51 110 118 174 234 222 51 22 70 24 158 21 85 -3 109 -7 160 -32z m-255
-3550 l0 -865 -165 0 -165 0 0 865 0 865 165 0 165 0 0 -865z m490 0 l0 -865
-165 0 -165 0 0 865 0 865 165 0 165 0 0 -865z"/>
<path d="M500 4375 l0 -85 410 0 410 0 0 85 0 85 -410 0 -410 0 0 -85z"/>
<path d="M2285 4453 c-194 -24 -389 -120 -528 -260 -181 -183 -267 -390 -267
-644 0 -235 82 -442 241 -613 125 -134 278 -224 455 -268 129 -32 304 -30 435
5 167 44 313 130 429 254 159 168 236 349 247 575 11 222 -40 402 -162 573
-59 83 -189 204 -272 254 -166 99 -393 147 -578 124z m340 -197 c96 -33 195
-90 259 -148 l46 -43 -261 -200 c-144 -110 -267 -200 -274 -200 -7 0 -130 90
-273 200 l-260 200 26 28 c34 36 147 111 206 138 103 45 183 59 321 56 110 -3
142 -8 210 -31z m-581 -538 l265 -203 1 -353 c0 -332 -1 -353 -17 -349 -10 3
-43 11 -73 17 -30 7 -91 29 -135 50 -202 94 -346 263 -407 475 -29 103 -31
277 -4 374 26 94 77 203 92 197 7 -3 132 -96 278 -208z m1024 143 c51 -113 65
-183 65 -311 0 -136 -16 -208 -74 -326 -103 -209 -303 -361 -531 -403 l-48 -8
1 351 0 351 272 208 c149 114 274 207 278 207 3 0 20 -31 37 -69z"/>
<path d="M500 4045 l0 -85 410 0 410 0 0 85 0 85 -410 0 -410 0 0 -85z"/>
<path d="M500 3715 l0 -85 410 0 410 0 0 85 0 85 -410 0 -410 0 0 -85z"/>
<path d="M500 3385 l0 -85 410 0 410 0 0 85 0 85 -410 0 -410 0 0 -85z"/>
<path d="M500 3055 l0 -85 410 0 410 0 0 85 0 85 -410 0 -410 0 0 -85z"/>
<path d="M500 2725 l0 -85 410 0 410 0 0 85 0 85 -410 0 -410 0 0 -85z"/>
<path d="M1650 2136 c-78 -17 -142 -50 -198 -104 -99 -94 -132 -189 -132 -374
0 -189 28 -275 123 -375 27 -29 47 -56 44 -59 -6 -6 -225 -74 -239 -74 -5 0
-8 26 -8 58 0 175 -97 334 -248 405 -61 29 -75 32 -167 32 -92 0 -106 -3 -167
-32 -126 -59 -213 -170 -238 -302 -13 -71 -13 -232 1 -307 15 -81 55 -158 112
-217 26 -26 47 -52 47 -56 0 -5 -69 -27 -152 -51 -84 -24 -179 -56 -210 -73
-74 -38 -141 -110 -181 -195 -31 -66 -32 -70 -35 -239 l-4 -173 826 0 826 0 0
153 c0 166 -11 226 -57 305 l-25 42 161 0 c89 0 161 -3 161 -6 0 -4 -15 -36
-32 -73 -33 -65 -33 -66 -36 -243 l-4 -178 826 0 826 0 0 143 c0 211 -32 309
-132 403 -62 58 -117 82 -300 135 -82 23 -148 46 -148 51 0 6 20 31 45 56 96
97 133 230 120 424 -6 104 -28 181 -68 244 -37 59 -121 132 -185 162 -50 24
-69 27 -157 27 -128 -1 -191 -24 -275 -101 -98 -92 -140 -189 -140 -327 0 -51
-3 -68 -12 -65 -7 3 -60 18 -118 33 -58 16 -109 32 -114 36 -5 4 15 34 44 66
90 98 120 188 120 358 0 116 -13 183 -50 262 -56 121 -169 209 -299 233 -65
12 -80 12 -151 -4z m186 -180 c28 -13 65 -41 82 -62 52 -63 64 -115 60 -267
-3 -129 -4 -136 -33 -183 -18 -29 -50 -61 -77 -79 l-47 -30 0 -121 -1 -121
207 -59 206 -59 38 -74 c20 -40 55 -92 78 -115 33 -34 52 -66 38 -66 -1 0 -49
-13 -107 -30 l-105 -30 -440 0 -439 0 -111 31 c-60 17 -112 33 -114 35 -2 2
16 25 41 51 49 53 93 123 103 165 8 31 -11 24 268 103 l167 48 0 122 c0 117
-1 122 -23 132 -44 20 -90 68 -113 118 -21 45 -24 64 -24 190 0 161 10 194 77
258 73 70 176 86 269 43z m-906 -496 c48 -25 95 -76 119 -130 29 -63 30 -294
2 -355 -21 -46 -70 -99 -112 -121 l-30 -15 3 -121 3 -121 203 -58 c236 -68
261 -79 303 -127 43 -48 59 -92 66 -173 l6 -69 -662 0 -661 0 0 73 c0 59 5 81
28 122 43 79 84 101 324 170 l213 61 3 121 3 121 -35 21 c-52 33 -104 95 -116
142 -7 24 -10 98 -8 179 3 132 4 138 33 186 69 110 205 151 315 94z m1821 -1
c49 -24 104 -91 123 -147 18 -53 22 -245 6 -303 -15 -53 -49 -99 -103 -139
l-47 -35 2 -119 3 -120 213 -61 c244 -71 280 -90 324 -174 23 -43 28 -66 28
-122 l0 -69 -660 0 -660 0 0 53 c0 96 31 163 102 220 28 23 85 43 255 92 l218
62 3 119 3 119 -52 35 c-79 54 -108 113 -115 236 -7 121 7 215 40 265 70 106
208 144 317 88z"/>
</g>
</svg>
